<svg viewBox="0 0 32 32" fill="none" xmlns="http://www.w3.org/2000/svg">
  <path d="M16 5C9 6.5 6.5 13 8.5 21" stroke="#ff4da6" stroke-width="2.4" stroke-linecap="round" />
  <path d="M16 5C23 6.5 25.5 13 23.5 21" stroke="#ff4da6" stroke-width="2.4" stroke-linecap="round" />
  <path d="M8.5 21C11 24.5 16 25.5 23.5 21" stroke="#ff85c8" stroke-width="1.5" stroke-linecap="round" />
  <circle cx="16" cy="9" r="2.2" fill="#ff2d8a" />
  <path d="M16 11.2C14.8 10.1 13 10.4 13 11.8C13 13.2 16 15.2 16 15.2C16 15.2 19 13.2 19 11.8C19 10.4 17.2 10.1 16 11.2Z" fill="#ff4da6" />
  <path d="M16 15.5V26" stroke="#ff85c8" stroke-width="1.3" stroke-linecap="round" />
  <path d="M13.5 26L16 23.5L18.5 26" stroke="#ff4da6" stroke-width="1.4" stroke-linecap="round" stroke-linejoin="round" />
</svg>