<svg role="img" viewBox="0 0 24 24" xmlns="http://www.w3.org/2000/svg">
  <path fill="#9a7a8a" d="M23.15 2.587L18.21.21a1.494 1.494 0 0 0-1.705.29l-9.59 8.72L3.88 7.05A1.494 1.494 0 0 0 2.18 7.3L.21 8.87a1.5 1.5 0 0 0 0 2.56l2.82 1.83v5.68a1.5 1.5 0 0 0 .82 1.34l8.42 4.52a1.5 1.5 0 0 0 1.52-.09l8.42-5.73a1.5 1.5 0 0 0 .61-1.2V3.787a1.5 1.5 0 0 0-.85-1.2zm-6.46 14.74L12 19.054v-5.509l2.69-1.946 4.687 3.136-2.687 1.652zM5.59 8.576l4.687 3.136L12 9.766V4.257L5.59 8.576zM2.21 10.15l2.691 1.746v2.208L2.21 15.85V10.15zm8.79 8.904l4.69-3.137L20.41 16.3l-5.41 3.754-4.01-1zM12 2.256l5.41 3.754-2.69 1.946L12 6.01V2.256z"/>
</svg>